<svg fill="none" viewBox="0 0 28 28" xmlns="http://www.w3.org/2000/svg"><path d="M25.875 13.052c.559-3.276-.815-6.612-2.993-8.913-2.172-2.294-5.335-3.746-8.484-2.891l.514 1.878c2.226-.605 4.687.382 6.548 2.348 1.856 1.96 2.923 4.705 2.489 7.253l1.926.325Z" fill="#ffffff" class="fill-000000"></path><path clip-rule="evenodd" d="M0 7.337C0 4.224 2.534 1.7 5.66 1.7c.61 0 1.2.097 1.753.276.707.23 1.123.841 1.23 1.451l.961 5.494.167 1.17c.087.602-.11 1.298-.69 1.737a5.65 5.65 0 0 1-2.055.98 13.793 13.793 0 0 0 2.92 4.284 13.852 13.852 0 0 0 4.304 2.91 5.608 5.608 0 0 1 .984-2.046c.44-.578 1.139-.774 1.744-.688l1.173.167 5.518.957c.612.107 1.226.52 1.457 1.226.18.55.276 1.137.276 1.745 0 3.113-2.533 5.637-5.66 5.637a5.72 5.72 0 0 1-.74-.048 19.78 19.78 0 0 1-6.803-1.48 19.712 19.712 0 0 1-6.393-4.256 19.625 19.625 0 0 1-5.34-9.79A19.555 19.555 0 0 1 .047 8.07 5.659 5.659 0 0 1 0 7.337Zm17.83 12.018-1.09-.155c-.285.391-.494.84-.606 1.323a1.967 1.967 0 0 1-.843 1.202 1.72 1.72 0 0 1-1.599.156 15.808 15.808 0 0 1-5.127-3.413 15.739 15.739 0 0 1-3.426-5.107 1.7 1.7 0 0 1 .156-1.59 1.97 1.97 0 0 1 1.205-.838 3.69 3.69 0 0 0 1.331-.605l-.16-1.125-.866-4.944-.08-.458a3.72 3.72 0 0 0-1.065-.155A3.705 3.705 0 0 0 2.075 6.4a3.683 3.683 0 0 0-.085 1.454l.007.05.002.05a17.616 17.616 0 0 0 1.34 6.15 17.679 17.679 0 0 0 3.848 5.737 17.759 17.759 0 0 0 8.855 4.792c1.011.214 2.04.34 3.077.377l.051.002.05.007a3.698 3.698 0 0 0 4.073-4.715l-5.462-.948Z" fill="#ffffff" fill-rule="evenodd" class="fill-000000"></path><path d="M20.074 7.485c1.257 1.324 1.914 3.28 1.385 5.18l-1.883-.521c.32-1.149-.064-2.419-.922-3.322-.843-.89-2.076-1.35-3.403-.985l-.52-1.875c2.117-.584 4.073.184 5.343 1.523Z" fill="#ffffff" class="fill-000000"></path></svg>