<svg xmlns="http://www.w3.org/2000/svg" width="146.6" height="40.2" viewBox="0 0 146.6 40.2">
  <g id="Grupo_7" data-name="Grupo 7" transform="translate(-967 -542)">
    <g id="Grupo_6" data-name="Grupo 6" transform="translate(961.3 540.1)">
      <path id="Caminho_1" data-name="Caminho 1" d="M36,17H56.2V12.4c0-.2-.7-.5-1-.5H42.6c-1.4,0-1.4,0-1.4-1.4V7.1a2.483,2.483,0,0,1,.9-.1H60c.8,0,1.2.1,1.2,1V31.9H36Zm5,9.7a1.238,1.238,0,0,1,.3.2H55.4c.2,0,.6-.5.6-.7.1-1,0-2,0-3,0-.9-.3-1.2-1.2-1.2H42c-.6,0-1.2,0-1.2.9A23.578,23.578,0,0,1,41,26.7Z" fill="#ffc129"/>
      <path id="Caminho_2" data-name="Caminho 2" d="M71.2,7v7c0,4,.1,8.1.1,12.1,0,.6.2.8.8.8H85.7c.8,0,.8-.4.8-1,0-5.9.1-11.7.1-17.6V7h4.8V24.5c0,5.4,0,10.9.1,16.3,0,.9-.2,1.2-1.1,1.2-2.9-.1-5.9,0-8.9,0V37h4.9V32H66.3V8.3c0-1,.3-1.4,1.3-1.3C68.8,7.1,69.9,7,71.2,7Z" fill="#81cc4c"/>
      <path id="Caminho_3" data-name="Caminho 3" d="M121.9,16.9v15H96.8V7h4.9v9.9Zm-20.1,10h14.5c.2,0,.6-.3.6-.5V22H101.8Z" fill="#FFFFFF"/>
      <path id="Caminho_4" data-name="Caminho 4" d="M142.4,26.9h8.4c1.5,0,1.5,0,1.5,1.5v3.5H137.2V2c1.5,0,2.9-.1,4.3-.1.2,0,.5.5.5.8A18.186,18.186,0,0,1,142,6c0,.7.2.9.9.9h3.2c.7,0,1,.2,1,.9,0,1.1.1,2.2,0,3.2,0,.3-.5.7-.8.7-1.1.1-2.3,0-3.5.1-.3,0-.8.4-.8.6,0,4.7.1,9.4.1,14.1A1.048,1.048,0,0,1,142.4,26.9Z" fill="#FFFFFF"/>
      <path id="Caminho_5" data-name="Caminho 5" d="M132,31.9h-4.9V17H132Z" fill="#FFFFFF"/>
      <path id="Caminho_6" data-name="Caminho 6" d="M127.1,7h4.8v4.8h-4.2a.877.877,0,0,1-.6-.7Z" fill="#FFFFFF"/>
      <g id="Grupo_5" data-name="Grupo 5">
        <g id="Grupo_4" data-name="Grupo 4">
          <path id="Caminho_7" data-name="Caminho 7" d="M97.1,40.4l.6-.1a.845.845,0,0,0,.2.6,1,1,0,0,0,.5.4,1.949,1.949,0,0,0,.8.1,1.483,1.483,0,0,0,.7-.1,1.38,1.38,0,0,0,.4-.3.6.6,0,0,0,.1-.4c0-.2,0-.3-.1-.4a1.069,1.069,0,0,0-.5-.3c-.1-.1-.4-.1-.9-.2a4.053,4.053,0,0,1-1-.3,1.205,1.205,0,0,1-.5-.5,1.421,1.421,0,0,1-.2-.6,1.445,1.445,0,0,1,.2-.7,1.47,1.47,0,0,1,.6-.5,2.92,2.92,0,0,1,.9-.2,2.958,2.958,0,0,1,1,.2,1.794,1.794,0,0,1,.7.5,1.077,1.077,0,0,1,.2.8h-.6a1.143,1.143,0,0,0-.3-.7c-.2-.2-.5-.2-.9-.2a2,2,0,0,0-.9.2.55.55,0,0,0-.3.5.52.52,0,0,0,.2.4,6.392,6.392,0,0,0,1,.4,5.307,5.307,0,0,1,1.1.3,1.024,1.024,0,0,1,.6.5,1.445,1.445,0,0,1,.2.7,2.354,2.354,0,0,1-.2.8,4.349,4.349,0,0,1-.7.6,2.959,2.959,0,0,1-1,.2,3.087,3.087,0,0,1-1.1-.2,1.344,1.344,0,0,1-.7-.6C97.2,41.1,97.1,40.8,97.1,40.4Z" fill="#FFFFFF"/>
          <path id="Caminho_8" data-name="Caminho 8" d="M104.1,39.6a2.724,2.724,0,0,1,.7-2,2.06,2.06,0,0,1,1.7-.7,2.768,2.768,0,0,1,1.3.3,1.962,1.962,0,0,1,.9.9,2.768,2.768,0,0,1,.3,1.3,3.194,3.194,0,0,1-.3,1.4,1.962,1.962,0,0,1-.9.9,2.663,2.663,0,0,1-1.2.3,2.768,2.768,0,0,1-1.3-.3,1.419,1.419,0,0,1-.8-.9A1.922,1.922,0,0,1,104.1,39.6Zm.7,0a1.978,1.978,0,0,0,.5,1.4,1.69,1.69,0,0,0,2.4,0,2.251,2.251,0,0,0,.5-1.5,3.6,3.6,0,0,0-.2-1.1,1.344,1.344,0,0,0-.6-.7,1.613,1.613,0,0,0-.9-.3,1.656,1.656,0,0,0-1.2.5A2.175,2.175,0,0,0,104.8,39.6Z" fill="#FFFFFF"/>
          <path id="Caminho_9" data-name="Caminho 9" d="M112.1,42V37h3.4v.6h-2.7v1.6h2.4v.6h-2.4V42Z" fill="#FFFFFF"/>
          <path id="Caminho_10" data-name="Caminho 10" d="M119.9,42V37.6h-1.7V37h4v.6h-1.7V42Z" fill="#FFFFFF"/>
          <path id="Caminho_11" data-name="Caminho 11" d="M126.1,42l-1.3-5h.7l.8,3.3a3.553,3.553,0,0,1,.2,1c.1-.5.2-.8.2-.9l1-3.4h.8l.7,2.5a11.626,11.626,0,0,1,.4,1.8c.1-.3.1-.7.2-1.1l.8-3.2h.7l-1.4,5h-.6l-1.1-3.8c-.1-.3-.1-.5-.2-.6a1.268,1.268,0,0,0-.1.6L126.8,42h-.7Z" fill="#FFFFFF"/>
          <path id="Caminho_12" data-name="Caminho 12" d="M133.4,42l1.9-5h.7l2.1,5h-.8l-.6-1.5h-2.1L134,42Zm1.4-2h1.7l-.5-1.4c-.2-.4-.3-.8-.4-1-.1.3-.2.6-.3,1Z" fill="#FFFFFF"/>
          <path id="Caminho_13" data-name="Caminho 13" d="M140.9,42V37h2.2a2.787,2.787,0,0,1,1,.1,1.333,1.333,0,0,1,.6.5,1.884,1.884,0,0,1,.2.8,1.222,1.222,0,0,1-.3.9,2.257,2.257,0,0,1-1.1.5c.2.1.3.2.4.2a4.35,4.35,0,0,1,.6.7l.9,1.4h-.8l-.7-1c-.2-.3-.4-.5-.5-.7s-.2-.3-.3-.3a.367.367,0,0,0-.3-.1h-1.2v2Zm.7-2.8H143a1.483,1.483,0,0,0,.7-.1,1.38,1.38,0,0,0,.4-.3.749.749,0,0,0,.1-.5.864.864,0,0,0-.3-.6c-.2-.2-.4-.2-.8-.2h-1.6v1.7Z" fill="#FFFFFF"/>
          <path id="Caminho_14" data-name="Caminho 14" d="M148.3,42V37h3.6v.6h-3v1.5h2.8v.6H149v1.7h3.1V42Z" fill="#FFFFFF"/>
        </g>
      </g>
      <path id="Caminho_15" data-name="Caminho 15" d="M25.7,7V26.9H21.6c-.8,0-1-.2-1-1V12h-5V27H12c-1.5,0-1.5,0-1.5-1.4V9h0V7H5.7V31.9H30.8V7.1C29,7,27.5,7,25.7,7Z" fill="#38bfec"/>
    </g>
  </g>
</svg>
